<svg xmlns="http://www.w3.org/2000/svg" viewBox="0 0 700 432" width="100%" height="100%" style="background-color: transparent; font-family: 'Segoe UI', Arial, sans-serif;">
  <defs>
    <filter id="hudShadow" x="-20%" y="-20%" width="140%" height="140%">
      <feDropShadow dx="0" dy="8" stdDeviation="10" flood-color="#000000" flood-opacity="0.6"/>
    </filter>
    <filter id="glowGold" x="-20%" y="-20%" width="140%" height="140%">
      <feDropShadow dx="0" dy="0" stdDeviation="5" flood-color="#d2a65e" flood-opacity="0.5"/>
    </filter>
    <linearGradient id="activeTabGrad" x1="0%" y1="0%" x2="100%" y2="100%">
      <stop offset="0%" stop-color="#f3d399"/>
      <stop offset="100%" stop-color="#d2a65e"/>
    </linearGradient>
    <clipPath id="overlayClip">
      <path d="M 0,12 L 12,0 L 688,0 L 700,12 L 700,420 L 688,432 L 12,432 L 0,420 Z" />
    </clipPath>
    <pattern id="grid" width="25" height="25" patternUnits="userSpaceOnUse">
      <path d="M 25 0 L 0 0 0 25" fill="none" stroke="#161b22" stroke-width="1.5"/>
    </pattern>
  </defs>

  <g clip-path="url(#overlayClip)" filter="url(#hudShadow)">
    <rect width="700" height="432" fill="#0a0d12" opacity="0.92" />
    <rect width="700" height="432" fill="url(#grid)" opacity="0.4"/>
    <path d="M 0,12 L 12,0 L 688,0 L 700,12 L 700,420 L 688,432 L 12,432 L 0,420 Z" fill="none" stroke="#30363d" stroke-width="2"/>
    <path d="M 0,12 L 12,0 L 220,0" fill="none" stroke="#d2a65e" stroke-width="2" filter="url(#glowGold)"/>

    <rect x="0" y="0" width="700" height="50" fill="#11151d" opacity="0.8"/>
    <line x1="0" y1="50" x2="700" y2="50" stroke="#1f242e" stroke-width="2"/>

    <text x="20" y="32" font-family="Arial Black, Impact, sans-serif" font-size="20" font-weight="900" fill="#ffffff" letter-spacing="1">DURAN</text>
    <text x="110" y="32" font-family="Arial Black, Impact, sans-serif" font-size="20" font-weight="900" fill="#d2a65e" letter-spacing="1" filter="url(#glowGold)">HELPER</text>
    <rect x="210" y="18" width="34" height="16" rx="4" fill="#e74c3c" opacity="0.15"/>
    <text x="227" y="30" font-size="9" font-weight="bold" fill="#e74c3c" text-anchor="middle" letter-spacing="1">HUD</text>

    <g transform="translate(260, 12)">
      <g transform="translate(0, 0)">
        <rect x="0" y="0" width="80" height="26" rx="4" fill="url(#activeTabGrad)" filter="url(#glowGold)"/>
        <text x="40" y="17" font-size="11" font-weight="900" fill="#080a0f" text-anchor="middle" letter-spacing="0.5">ЗАКОНЫ</text>
      </g>
      <g transform="translate(90, 0)" cursor="pointer">
        <rect x="0" y="0" width="160" height="26" rx="4" fill="#161b22" stroke="#30363d" stroke-width="1"/>
        <text x="80" y="17" font-size="11" font-weight="bold" fill="#8b949e" text-anchor="middle" letter-spacing="0.5">КАЛЬКУЛЯТОР ШТРАФОВ</text>
      </g>
      <g transform="translate(260, 0)" cursor="pointer">
        <rect x="0" y="0" width="80" height="26" rx="4" fill="#161b22" stroke="#30363d" stroke-width="1"/>
        <text x="40" y="17" font-size="11" font-weight="bold" fill="#8b949e" text-anchor="middle" letter-spacing="0.5">БИНДЕР</text>
      </g>
    </g>

    <rect x="655" y="12" width="26" height="26" rx="4" fill="#161b22" stroke="#30363d" stroke-width="1"/>
    <line x1="663" y1="20" x2="673" y2="30" stroke="#8b949e" stroke-width="2" stroke-linecap="round"/>
    <line x1="673" y1="20" x2="663" y2="30" stroke="#8b949e" stroke-width="2" stroke-linecap="round"/>

    <rect x="20" y="65" width="370" height="32" rx="6" fill="#11151d" stroke="#1f242e" stroke-width="1.5" opacity="0.5"/>
    <circle cx="35" cy="81" r="4" fill="none" stroke="#6b737f" stroke-width="2" opacity="0.5"/>
    <line x1="38" y1="84" x2="42" y2="88" stroke="#6b737f" stroke-width="2" stroke-linecap="round" opacity="0.5"/>
    <text x="50" y="86" font-size="12" fill="#4a5059">Поиск недоступен...</text>

    <rect x="400" y="65" width="280" height="32" rx="6" fill="#11151d" stroke="#1f242e" stroke-width="1.5" opacity="0.5"/>
    <text x="415" y="86" font-size="12" font-weight="bold" fill="#4a5059">База не выбрана</text>
    <path d="M 660 78 L 665 84 L 670 78" fill="none" stroke="#4a5059" stroke-width="2" stroke-linecap="round"/>

    <g transform="translate(350, 230)">
      <path d="M -25 -40 L 10 -40 L 30 -20 L 30 40 C 30 45 25 50 20 50 L -25 50 C -30 50 -35 45 -35 40 L -35 -30 C -35 -35 -30 -40 -25 -40 Z" fill="none" stroke="#1f242e" stroke-width="4" stroke-linejoin="round"/>
      <path d="M 10 -40 L 10 -20 L 30 -20" fill="none" stroke="#1f242e" stroke-width="4" stroke-linejoin="round"/>
      <line x1="-15" y1="-10" x2="15" y2="-10" stroke="#30363d" stroke-width="4" stroke-linecap="round"/>
      <line x1="-15" y1="5" x2="15" y2="5" stroke="#30363d" stroke-width="4" stroke-linecap="round"/>
      <line x1="-15" y1="20" x2="5" y2="20" stroke="#30363d" stroke-width="4" stroke-linecap="round"/>
      
      <text x="0" y="85" font-family="Segoe UI, Arial" font-size="16" font-weight="900" fill="#8b949e" text-anchor="middle" letter-spacing="1">БАЗА ЗАКОНОВ ПУСТА</text>
      <text x="0" y="105" font-family="Segoe UI, Arial" font-size="12" fill="#5c6370" text-anchor="middle">Откройте лаунчер и настройте профиль с УК / КоАП.</text>
    </g>

  </g>
</svg>
